<svg width="17" height="17" viewBox="0 0 17 17" fill="none" xmlns="http://www.w3.org/2000/svg">
<path d="M7.9282 0.504306C7.89379 0.507433 7.78431 0.51838 7.68577 0.526199C5.41324 0.731056 3.2846 1.95707 1.93641 3.84145C1.18568 4.88919 0.705521 6.07768 0.524094 7.33654C0.459969 7.77596 0.452148 7.90576 0.452148 8.50157C0.452148 9.09737 0.459969 9.22717 0.524094 9.6666C0.958893 12.6707 3.09692 15.1946 5.99663 16.1298C6.51588 16.2971 7.06329 16.4113 7.68577 16.4801C7.9282 16.5066 8.9761 16.5066 9.21852 16.4801C10.293 16.3612 11.2033 16.0954 12.101 15.6372C12.2387 15.5668 12.2652 15.548 12.2465 15.5324C12.234 15.523 11.6475 14.7364 10.9436 13.7856L9.66427 12.0576L8.06114 9.68536C7.17903 8.38115 6.45332 7.31464 6.44707 7.31464C6.44081 7.31308 6.43455 8.36708 6.43143 9.65409C6.42673 11.9075 6.42517 11.9982 6.39702 12.0514C6.35635 12.128 6.32507 12.1593 6.25938 12.1937C6.20933 12.2187 6.16554 12.2234 5.92937 12.2234H5.6588L5.58685 12.1781C5.53993 12.1483 5.50552 12.1092 5.48206 12.0639L5.44922 11.9935L5.45234 8.85811L5.45704 5.72113L5.50552 5.66015C5.53055 5.62731 5.58372 5.58508 5.62126 5.56475C5.68538 5.53348 5.71041 5.53035 5.98099 5.53035C6.30005 5.53035 6.35322 5.54286 6.43612 5.63356C6.45958 5.65858 7.32761 6.96592 8.36613 8.54066C9.40464 10.1154 10.8248 12.2656 11.5223 13.3212L12.7892 15.24L12.8533 15.1977C13.4211 14.8287 14.0217 14.3033 14.4971 13.7559C15.509 12.594 16.1612 11.1772 16.3802 9.6666C16.4443 9.22717 16.4521 9.09737 16.4521 8.50157C16.4521 7.90576 16.4443 7.77596 16.3802 7.33654C15.9454 4.33248 13.8074 1.80851 10.9077 0.873362C10.3962 0.707599 9.85195 0.593442 9.24198 0.524635C9.09184 0.508997 8.05801 0.491795 7.9282 0.504306ZM11.2033 5.3427C11.2783 5.38023 11.3393 5.45216 11.3612 5.52722C11.3738 5.56788 11.3769 6.43735 11.3738 8.39679L11.3691 11.2085L10.8733 10.4485L10.3759 9.68849V7.64461C10.3759 6.3232 10.3822 5.58039 10.3915 5.54443C10.4166 5.45685 10.4713 5.38804 10.5464 5.34739C10.6105 5.31455 10.634 5.31142 10.8795 5.31142C11.111 5.31142 11.1517 5.31455 11.2033 5.3427Z" fill="white"/>
</svg>
