<svg width="16" height="16" viewBox="0 0 16 16" fill="none" xmlns="http://www.w3.org/2000/svg">
<path d="M7.62013 0.504037C7.58787 0.506969 7.48523 0.517231 7.39285 0.524561C5.26235 0.716615 3.26675 1.86601 2.00282 3.63261C1.29901 4.61487 0.848865 5.72907 0.678777 6.90925C0.61866 7.32122 0.611328 7.4429 0.611328 8.00147C0.611328 8.56004 0.61866 8.68172 0.678777 9.09368C1.0864 11.91 3.0908 14.2762 5.80928 15.1529C6.29608 15.3098 6.80928 15.4168 7.39285 15.4813C7.62013 15.5062 8.60253 15.5062 8.8298 15.4813C9.83713 15.3699 10.6905 15.1207 11.5321 14.6911C11.6612 14.6251 11.6861 14.6075 11.6685 14.5929C11.6568 14.5841 11.1069 13.8467 10.4471 12.9553L9.24769 11.3353L7.74476 9.11128C6.91778 7.88858 6.23743 6.88873 6.23156 6.88873C6.2257 6.88726 6.21983 7.87539 6.2169 9.08196C6.2125 11.1945 6.21103 11.2796 6.18464 11.3294C6.14652 11.4013 6.11719 11.4306 6.05561 11.4628C6.00869 11.4863 5.96763 11.4907 5.74623 11.4907H5.49256L5.42511 11.4482C5.38112 11.4203 5.34887 11.3837 5.32687 11.3412L5.29608 11.2752L5.29901 8.33573L5.30341 5.39481L5.34887 5.33764C5.37233 5.30685 5.42218 5.26727 5.45737 5.24821C5.51749 5.21889 5.54095 5.21595 5.79461 5.21595C6.09373 5.21595 6.14359 5.22768 6.2213 5.31271C6.24329 5.33617 7.05708 6.5618 8.03068 8.03812C9.00429 9.51444 10.3357 11.5303 10.9896 12.5199L12.1773 14.3187L12.2374 14.2791C12.7697 13.9331 13.3327 13.4406 13.7785 12.9274C14.7272 11.8381 15.3386 10.5099 15.5439 9.09368C15.604 8.68172 15.6113 8.56004 15.6113 8.00147C15.6113 7.4429 15.604 7.32122 15.5439 6.90925C15.1363 4.09295 13.1319 1.72673 10.4134 0.850027C9.93391 0.694624 9.42365 0.587602 8.8518 0.523095C8.71103 0.508435 7.74183 0.492308 7.62013 0.504037ZM10.6905 5.04003C10.7609 5.07521 10.8181 5.14265 10.8386 5.21302C10.8503 5.25114 10.8533 6.06627 10.8503 7.90324L10.8459 10.5392L10.3811 9.82671L9.91485 9.11421V7.19807C9.91485 5.95925 9.92071 5.26287 9.92951 5.22915C9.95297 5.14705 10.0043 5.08254 10.0747 5.04443C10.1348 5.01364 10.1568 5.01071 10.387 5.01071C10.604 5.01071 10.6421 5.01364 10.6905 5.04003Z" fill="white"/>
</svg>
